PathFileType	4	(X/Y/Z)	RBDS04static.trc
DataRate	CameraRate	NumFrames	NumMarkers	Units	OrigDataRate	OrigDataStartFrame	OrigNumFrames
150.000000	150.000000	4	48	mm	150.000000	37	150
Frame#	Time	L.Ankle			L.Ankle.Medial			L.ASIS			L.GTR			L.Heel.Bottom			L.Heel.Lateral			L.Heel.Top			L.HF			L.Iliac.Crest			L.Knee			L.Knee.Medial			L.MT1			L.MT2			L.MT5			L.PSIS			L.Shank.Bottom.Lateral			L.Shank.Bottom.Medial			L.Shank.Top.Lateral			L.Shank.Top.Medial			L.Thigh.Bottom.Lateral			L.Thigh.Bottom.Medial			L.Thigh.Top.Lateral			L.Thigh.Top.Medial			L.TT			R.Ankle			R.Ankle.Medial			R.ASIS			R.GTR			R.Heel.Bottom			R.Heel.Lateral			R.Heel.Top			R.HF			R.Iliac.Crest			R.Knee			R.Knee.Medial			R.MT1			R.MT2			R.MT5			R.PSIS			R.Shank.Bottom.Lateral			R.Shank.Bottom.Medial			R.Shank.Top.Lateral			R.Shank.Top.Medial			R.Thigh.Bottom.Lateral			R.Thigh.Bottom.Medial			R.Thigh.Top.Lateral			R.Thigh.Top.Medial			R.TT			
		X1	Y1	Z1	X2	Y2	Z2	X3	Y3	Z3	X4	Y4	Z4	X5	Y5	Z5	X6	Y6	Z6	X7	Y7	Z7	X8	Y8	Z8	X9	Y9	Z9	X10	Y10	Z10	X11	Y11	Z11	X12	Y12	Z12	X13	Y13	Z13	X14	Y14	Z14	X15	Y15	Z15	X16	Y16	Z16	X17	Y17	Z17	X18	Y18	Z18	X19	Y19	Z19	X20	Y20	Z20	X21	Y21	Z21	X22	Y22	Z22	X23	Y23	Z23	X24	Y24	Z24	X25	Y25	Z25	X26	Y26	Z26	X27	Y27	Z27	X28	Y28	Z28	X29	Y29	Z29	X30	Y30	Z30	X31	Y31	Z31	X32	Y32	Z32	X33	Y33	Z33	X34	Y34	Z34	X35	Y35	Z35	X36	Y36	Z36	X37	Y37	Z37	X38	Y38	Z38	X39	Y39	Z39	X40	Y40	Z40	X41	Y41	Z41	X42	Y42	Z42	X43	Y43	Z43	X44	Y44	Z44	X45	Y45	Z45	X46	Y46	Z46	X47	Y47	Z47	X48	Y48	Z48	

38	0.2466666666666667	694.0577392578125	100.7925415039063	1055.119018554688	715.259765625	105.043701171875	1134.25634765625	836.9935302734375	977.9281616210938	1131.317626953125	746.5382690429688	896.4880981445313	1063.82080078125	629.659912109375	38.84140396118164	1086.599487304688	662.3807373046875	58.43154525756836	1046.578002929688	638.5667724609375	85.59348297119141	1087.612548828125	700.3980102539063	451.3484497070313	1050.339111328125	761.2362060546875	1039.260498046875	1086.163818359375	710.6395263671875	516.71923828125	1056.668212890625	703.154541015625	504.9471740722656	1170.805053710938	842.7706909179688	61.40131378173828	1129.269653320313	841.7325439453125	65.89962005615234	1081.748657226563	816.5059814453125	49.64716339111328	1028.257080078125	668.54296875	1000.78076171875	1188.915283203125	695.7247924804688	184.4629669189453	1047.49609375	652.7515258789063	179.3769378662109	1074.404052734375	686.1840209960938	264.2164611816406	1038.486206054688	641.283203125	263.4197082519531	1067.562744140625	728.0717163085938	632.5030517578125	1043.00634765625	665.8448486328125	634.8287353515625	1081.786743164063	726.6266479492188	743.0665893554688	1041.861938476563	670.7823486328125	745.1190795898438	1082.8857421875	750.2069091796875	430.4125366210938	1097.334350585938	692.7523803710938	95.77147674560547	1398.933837890625	714.646484375	110.9881973266602	1320.501098632813	832.179443359375	975.2047119140625	1335.212036132813	764.150146484375	893.4323120117188	1400.2763671875	628.421630859375	39.14281463623047	1364.818603515625	660.2559204101563	56.36832427978516	1405.32861328125	636.0111694335938	84.74781799316406	1364.545654296875	713.4898071289063	450.0493774414063	1415.445556640625	759.3621215820313	1029.050048828125	1376.39892578125	711.504150390625	526.718505859375	1405.275512695313	715.4652099609375	506.7894897460938	1291.461669921875	841.9710693359375	63.37699127197266	1332.835083007813	855.730712890625	64.67794036865234	1375.328247070313	814.1800537109375	53.0287971496582	1430.340576171875	666.7605590820313	1002.299621582031	1274.270874023438	685.9091186523438	179.0480194091797	1410.022338867188	648.8208618164063	181.5989227294922	1370.087158203125	676.7567138671875	258.97021484375	1421.126831054688	642.0521240234375	260.5941467285156	1379.61865234375	721.076416015625	618.4830322265625	1413.668579101563	664.998291015625	618.7180786132813	1362.623779296875	714.5963745117188	728.9434814453125	1417.466064453125	663.8626098632813	728.6141967773438	1368.431518554688	762.3944091796875	432.6933898925781	1360.326171875	
39	0.2533333333333334	694.061279296875	100.7970962524414	1055.121337890625	715.25830078125	105.0527572631836	1134.234497070313	836.9839477539063	977.935302734375	1131.334716796875	746.5181884765625	896.4846801757813	1063.82421875	629.65380859375	38.84188079833984	1086.591552734375	662.3815307617188	58.43866729736328	1046.571899414063	638.5714721679688	85.59503936767578	1087.6083984375	700.4016723632813	451.3468322753906	1050.346801757813	761.2188720703125	1039.264282226563	1086.17822265625	710.6505737304688	516.7088012695313	1056.673461914063	703.1617431640625	504.9481811523438	1170.814819335938	842.7779541015625	61.40036392211914	1129.268310546875	841.732177734375	65.89968872070313	1081.743041992188	816.4981079101563	49.6485595703125	1028.259521484375	668.52734375	1000.779846191406	1188.927856445313	695.7294921875	184.4640045166016	1047.502807617188	652.748046875	179.3841705322266	1074.404296875	686.1809692382813	264.2130737304688	1038.495239257813	641.28564453125	263.4201049804688	1067.56298828125	728.0631713867188	632.5030517578125	1043.017944335938	665.8386840820313	634.8121948242188	1081.793334960938	726.6145629882813	743.0653076171875	1041.869873046875	670.7770385742188	745.1151733398438	1082.891723632813	750.2064208984375	430.4149780273438	1097.346069335938	692.7515258789063	95.77589416503906	1398.933349609375	714.6415405273438	110.9975433349609	1320.505493164063	832.1591796875	975.2088623046875	1335.214721679688	764.1444091796875	893.434326171875	1400.273559570313	628.4129028320313	39.13870620727539	1364.813842773438	660.262451171875	56.36241149902344	1405.328002929688	636.0045166015625	84.74510955810547	1364.55322265625	713.501708984375	450.0427856445313	1415.443237304688	759.3541870117188	1029.070922851563	1376.391479492188	711.50927734375	526.7312622070313	1405.27099609375	715.4559326171875	506.801513671875	1291.461303710938	841.966552734375	63.37196731567383	1332.838256835938	855.7301025390625	64.67390441894531	1375.3369140625	814.1680297851563	53.02881240844727	1430.341796875	666.7548217773438	1002.303100585938	1274.27392578125	685.9197387695313	179.0548095703125	1410.028442382813	648.8309326171875	181.6100311279297	1370.089477539063	676.7618408203125	258.9723510742188	1421.114501953125	642.0589599609375	260.6106262207031	1379.623168945313	721.0847778320313	618.4853515625	1413.66552734375	665.005859375	618.7176513671875	1362.64111328125	714.6047973632813	728.9501342773438	1417.4755859375	663.8651123046875	728.602294921875	1368.437377929688	762.3955078125	432.6953430175781	1360.306396484375	
40	0.26	694.0545654296875	100.7945556640625	1055.133666992188	715.2543334960938	105.0609512329102	1134.245727539063	836.9738159179688	977.9450073242188	1131.330932617188	746.5087890625	896.488525390625	1063.823364257813	629.6520385742188	38.83928680419922	1086.586669921875	662.38037109375	58.44411468505859	1046.577026367188	638.5655517578125	85.59444427490234	1087.6103515625	700.4061889648438	451.3541564941406	1050.338989257813	761.2086181640625	1039.275146484375	1086.181762695313	710.6433715820313	516.7108154296875	1056.67529296875	703.1554565429688	504.94287109375	1170.803100585938	842.77392578125	61.40889358520508	1129.266479492188	841.7315063476563	65.89492034912109	1081.74169921875	816.5048828125	49.65048217773438	1028.258911132813	668.5220336914063	1000.778137207031	1188.9287109375	695.7233276367188	184.4594573974609	1047.499267578125	652.75341796875	179.3812255859375	1074.406127929688	686.1888427734375	264.2190246582031	1038.493530273438	641.2881469726563	263.421875	1067.572021484375	728.066162109375	632.505615234375	1043.013427734375	665.845458984375	634.8250122070313	1081.813232421875	726.6100463867188	743.07275390625	1041.87158203125	670.771240234375	745.123779296875	1082.894287109375	750.196533203125	430.4150390625	1097.348022460938	692.7495727539063	95.77607727050781	1398.92822265625	714.6444091796875	110.9894256591797	1320.495727539063	832.1517333984375	975.2171020507813	1335.216674804688	764.1369018554688	893.4243774414063	1400.273559570313	628.4150390625	39.13988876342773	1364.819091796875	660.2520751953125	56.37329483032227	1405.332763671875	636.0078125	84.74551391601563	1364.549926757813	713.508544921875	450.0464477539063	1415.444213867188	759.3379516601563	1029.081176757813	1376.381958007813	711.51904296875	526.724853515625	1405.2724609375	715.4638061523438	506.7983093261719	1291.463989257813	841.958740234375	63.37298965454102	1332.82861328125	855.7324829101563	64.68247222900391	1375.325439453125	814.1729125976563	53.02687072753906	1430.340454101563	666.7470092773438	1002.292602539063	1274.275512695313	685.9205322265625	179.0587615966797	1410.028198242188	648.8319091796875	181.6070404052734	1370.094482421875	676.7678833007813	258.978515625	1421.125122070313	642.0665893554688	260.6056213378906	1379.622436523438	721.093017578125	618.4901733398438	1413.669067382813	665.0065307617188	618.7172241210938	1362.634765625	714.6128540039063	728.9483642578125	1417.4736328125	663.880126953125	728.6036987304688	1368.432006835938	762.4029541015625	432.6924438476563	1360.327880859375	
41	0.2666666666666667	694.0560302734375	100.7998504638672	1055.127685546875	715.2632446289063	105.0512466430664	1134.235229492188	836.9716796875	977.9542236328125	1131.339721679688	746.50537109375	896.4869384765625	1063.826293945313	629.6505737304688	38.84054565429688	1086.590209960938	662.3838500976563	58.43757247924805	1046.566162109375	638.5668334960938	85.59821319580078	1087.618774414063	700.415771484375	451.361083984375	1050.33984375	761.2032470703125	1039.2939453125	1086.197387695313	710.6459350585938	516.7124633789063	1056.674438476563	703.1731567382813	504.9411926269531	1170.797485351563	842.7740478515625	61.40505599975586	1129.26708984375	841.7264404296875	65.89882659912109	1081.74609375	816.49853515625	49.65208053588867	1028.25830078125	668.5039672851563	1000.77685546875	1188.940673828125	695.7295532226563	184.4695892333984	1047.49658203125	652.7548217773438	179.382080078125	1074.402709960938	686.18408203125	264.2153930664063	1038.486938476563	641.2936401367188	263.4209594726563	1067.57373046875	728.067138671875	632.51220703125	1043.016967773438	665.8458251953125	634.8211059570313	1081.802612304688	726.6088256835938	743.0674438476563	1041.868774414063	670.7670288085938	745.12109375	1082.902709960938	750.2232666015625	430.4273071289063	1097.34033203125	692.7520141601563	95.78119659423828	1398.92431640625	714.639892578125	111.0038375854492	1320.4951171875	832.1466064453125	975.2337036132813	1335.217895507813	764.1412353515625	893.4376220703125	1400.273559570313	628.4224243164063	39.15190124511719	1364.813232421875	660.254638671875	56.37336349487305	1405.328369140625	636.00830078125	84.75298309326172	1364.5498046875	713.5094604492188	450.0419006347656	1415.438354492188	759.3320922851563	1029.096557617188	1376.384521484375	711.527099609375	526.7303466796875	1405.278076171875	715.4697875976563	506.8014526367188	1291.458251953125	841.9664306640625	63.37183380126953	1332.835327148438	855.73779296875	64.68251037597656	1375.31591796875	814.1762084960938	53.03059768676758	1430.338500976563	666.74267578125	1002.295104980469	1274.277465820313	685.9149169921875	179.0595092773438	1410.0234375	648.8369750976563	181.6153564453125	1370.101196289063	676.7723999023438	258.982666015625	1421.129028320313	642.0789794921875	260.6087951660156	1379.6259765625	721.1062622070313	618.479248046875	1413.66943359375	665.018798828125	618.71435546875	1362.63623046875	714.6229248046875	728.9481201171875	1417.4716796875	663.8788452148438	728.6083374023438	1368.446044921875	762.4127197265625	432.6887512207031	1360.326782226563	
